<svg width="94" height="28" viewBox="0 0 94 28" fill="none" xmlns="http://www.w3.org/2000/svg">
<path d="M21.046 1.802V26.826H16.116V16.66H4.92999V26.826H-1.07735e-05V1.802H4.92999V11.9H16.116V1.802H21.046ZM34.0202 27.234C32.2068 27.234 30.6655 26.894 29.3962 26.214C28.1495 25.534 27.1975 24.5933 26.5402 23.392C25.8828 22.1907 25.5542 20.808 25.5542 19.244C25.5542 17.748 25.9395 16.3993 26.7102 15.198C27.4808 13.9967 28.5122 13.0447 29.8042 12.342C31.0962 11.6167 32.5355 11.254 34.1222 11.254C36.2528 11.254 37.9982 11.8773 39.3582 13.124C40.7408 14.348 41.6362 16.1273 42.0442 18.462L30.4842 22.134L29.4302 19.55L37.7942 16.728L36.8082 17.17C36.6268 16.5807 36.2982 16.0707 35.8222 15.64C35.3688 15.1867 34.6775 14.96 33.7482 14.96C33.0455 14.96 32.4222 15.13 31.8782 15.47C31.3568 15.7873 30.9488 16.252 30.6542 16.864C30.3822 17.4533 30.2462 18.156 30.2462 18.972C30.2462 19.9013 30.4162 20.6833 30.7562 21.318C31.0962 21.93 31.5608 22.3947 32.1502 22.712C32.7395 23.0293 33.3968 23.188 34.1222 23.188C34.6435 23.188 35.1422 23.0973 35.6182 22.916C36.1168 22.7347 36.6042 22.4967 37.0802 22.202L39.1882 25.738C38.3948 26.1913 37.5335 26.554 36.6042 26.826C35.6975 27.098 34.8362 27.234 34.0202 27.234ZM45.5031 26.826V-9.53674e-07H50.2631V26.826H45.5031ZM54.0371 16.728L60.7691 26.826H55.2271L50.9091 19.448L54.0371 16.728ZM48.8351 22.712L48.3591 18.19L57.3351 11.594L60.2251 14.144L48.8351 22.712ZM65.4577 5.44H70.2177V11.9H73.8217V15.606H70.2177V26.826H65.4577V15.606H63.1457V11.9H65.4577V5.44ZM76.2886 19.21C76.2886 17.6913 76.6399 16.3313 77.3426 15.13C78.0679 13.9287 79.0766 12.988 80.3686 12.308C81.6606 11.6053 83.1452 11.254 84.8226 11.254C86.5226 11.254 87.9959 11.6053 89.2426 12.308C90.4892 12.988 91.4412 13.9287 92.0986 15.13C92.7786 16.3313 93.1186 17.6913 93.1186 19.21C93.1186 20.7287 92.7786 22.1 92.0986 23.324C91.4412 24.5253 90.4892 25.4773 89.2426 26.18C87.9959 26.8827 86.4999 27.234 84.7546 27.234C83.1226 27.234 81.6606 26.9167 80.3686 26.282C79.0992 25.6473 78.1019 24.7293 77.3766 23.528C76.6512 22.3267 76.2886 20.8873 76.2886 19.21ZM81.0826 19.244C81.0826 20.0147 81.2412 20.7173 81.5586 21.352C81.8759 21.964 82.3066 22.4513 82.8506 22.814C83.3946 23.1767 84.0066 23.358 84.6866 23.358C85.4346 23.358 86.0806 23.1767 86.6246 22.814C87.1686 22.4513 87.5879 21.964 87.8826 21.352C88.1772 20.7173 88.3246 20.0147 88.3246 19.244C88.3246 18.4507 88.1772 17.748 87.8826 17.136C87.5879 16.524 87.1686 16.0367 86.6246 15.674C86.0806 15.3113 85.4346 15.13 84.6866 15.13C84.0066 15.13 83.3946 15.3113 82.8506 15.674C82.3066 16.0367 81.8759 16.524 81.5586 17.136C81.2412 17.748 81.0826 18.4507 81.0826 19.244Z" fill="#0D0E43"/>
</svg>
